<?xml version="1.0" encoding="iso-8859-1"?>
<!-- Generator: Adobe Illustrator 19.0.0, SVG Export Plug-In . SVG Version: 6.00 Build 0)  -->
<svg version="1.1" id="Capa_1" xmlns="http://www.w3.org/2000/svg" xmlns:xlink="http://www.w3.org/1999/xlink" x="0px" y="0px"
	 viewBox="0 0 512 512" style="enable-background:new 0 0 512 512;" xml:space="preserve">
<path style="fill:#AC695D;" d="M489.5,504.5h-467c-8.284,0-15-6.716-15-15l0,0c0-8.284,6.716-15,15-15h467c8.284,0,15,6.716,15,15
	l0,0C504.5,497.784,497.784,504.5,489.5,504.5z"/>
<path style="fill:#955B50;" d="M489.5,474.5h-30c8.284,0,15,6.716,15,15s-6.716,15-15,15h30c8.284,0,15-6.716,15-15
	S497.784,474.5,489.5,474.5z"/>
<path style="fill:#FFD45E;" d="M413.5,414.5h-315v-84c0-11.046,8.954-20,20-20h275c11.046,0,20,8.954,20,20V414.5z"/>
<path style="fill:#F0AF4F;" d="M393.5,310.5h-30c11.046,0,20,8.954,20,20v84h30v-84C413.5,319.454,404.546,310.5,393.5,310.5z"/>
<g>
	<path style="fill:#FF7E47;" d="M148.5,389.159L148.5,389.159c-11.046,0-20-8.954-20-20l0,0c0-11.046,8.954-20,20-20l0,0
		c11.046,0,20,8.954,20,20l0,0C168.5,380.205,159.546,389.159,148.5,389.159z"/>
	<path style="fill:#FF7E47;" d="M363.5,389.159L363.5,389.159c-11.046,0-20-8.954-20-20l0,0c0-11.046,8.954-20,20-20l0,0
		c11.046,0,20,8.954,20,20l0,0C383.5,380.205,374.546,389.159,363.5,389.159z"/>
</g>
<rect x="86" y="414.5" style="fill:#D5E3F5;" width="340" height="30"/>
<rect x="396" y="414.5" style="fill:#B1C4DE;" width="30" height="30"/>
<g>
	<rect x="108.5" y="444.5" style="fill:#545D69;" width="40" height="30"/>
	<rect x="363.5" y="444.5" style="fill:#545D69;" width="40" height="30"/>
</g>
<path style="fill:#3AD1E6;" d="M389,310.5H123v-84c0-5.523,4.477-10,10-10h246c5.523,0,10,4.477,10,10V310.5z"/>
<path style="fill:#31BDD6;" d="M379,216.5h-30c5.523,0,10,4.477,10,10v84h30v-84C389,220.977,384.523,216.5,379,216.5z"/>
<path style="fill:#5E6875;" d="M379,216.5H133v-15.179c0-8.186,6.636-14.821,14.821-14.821h216.357
	c8.186,0,14.821,6.636,14.821,14.821V216.5H379z"/>
<path style="fill:#545D69;" d="M364.179,186.5h-30c8.186,0,14.821,6.636,14.821,14.822V216.5h30v-15.178
	C379,193.136,372.364,186.5,364.179,186.5z"/>
<path style="fill:#FFD45E;" d="M123,310.5H85.865C76.551,310.5,69,302.949,69,293.635v-0.27c0-9.314,7.551-16.865,16.865-16.865
	h6.084c17.149,0,31.051,13.902,31.051,31.051V310.5z"/>
<path style="fill:#F0AF4F;" d="M389,310.5h37.135c9.314,0,16.865-7.551,16.865-16.865v-0.27c0-9.314-7.551-16.865-16.865-16.865
	h-6.084c-17.149,0-31.051,13.902-31.051,31.051V310.5z"/>
<rect x="189" y="348.5" style="fill:#FFD45E;" width="134" height="66"/>
<path style="fill:#5E6875;" d="M333,348.5H179c-20.987,0-38-17.013-38-38l0,0h230l0,0C371,331.487,353.987,348.5,333,348.5z"/>
<path style="fill:#EF6161;" d="M335,86.741c0,62.181-61.605,111.169-76.012,121.775c-1.783,1.312-4.194,1.312-5.976,0
	C238.605,197.909,177,148.922,177,86.741C177,42.977,212.37,7.5,256,7.5S335,42.977,335,86.741z"/>
<path style="fill:#E63950;" d="M256,7.5c-5.131,0-10.142,0.508-15,1.445c36.454,7.031,64,39.179,64,77.796
	c0,50.785-41.088,92.764-64,112.226c5.142,4.368,9.371,7.605,12.012,9.549c1.782,1.313,4.194,1.313,5.976,0
	C273.395,197.909,335,148.922,335,86.741C335,42.977,299.63,7.5,256,7.5z"/>
<circle style="fill:#FFD45E;" cx="256" cy="86.39" r="48.889"/>
<path d="M489.5,467H411v-15h15c4.143,0,7.5-3.357,7.5-7.5v-30c0-4.143-3.357-7.5-7.5-7.5h-5v-76.5c0-4.5-1.094-8.747-3.018-12.5
	h8.153c13.435,0,24.365-10.931,24.365-24.365v-0.27c0-13.435-10.931-24.365-24.365-24.365h-6.083
	c-8.864,0-17.032,3.015-23.552,8.062V226.5c0-6.963-4.098-12.972-10-15.787v-9.393c0-12.308-10.013-22.32-22.32-22.32h-62.119
	c2.069-2.352,4.134-4.792,6.176-7.325c22.735-28.212,34.264-56.788,34.264-84.935C342.5,38.911,303.696,0,256,0
	s-86.5,38.911-86.5,86.74c0,28.146,11.528,56.723,34.264,84.935c2.041,2.533,4.107,4.973,6.176,7.325h-62.12
	c-12.307,0-22.32,10.013-22.32,22.32v9.393c-5.902,2.815-10,8.824-10,15.787v13.125c0,4.143,3.358,7.5,7.5,7.5s7.5-3.357,7.5-7.5
	V226.5c0-1.379,1.122-2.5,2.5-2.5h246c1.379,0,2.5,1.121,2.5,2.5V303h-29.667c-4.143,0-7.5,3.357-7.5,7.5s3.357,7.5,7.5,7.5h10.731
	c-3.351,13.203-15.334,23-29.564,23l0,0H179l0,0c-14.23,0-26.213-9.797-29.564-23H320c4.143,0,7.5-3.357,7.5-7.5s-3.357-7.5-7.5-7.5
	H130.5v-31.375c0-4.143-3.358-7.5-7.5-7.5s-7.5,3.357-7.5,7.5v5.437c-6.519-5.047-14.688-8.062-23.551-8.062h-6.083
	C72.43,269,61.5,279.931,61.5,293.365v0.27C61.5,307.069,72.43,318,85.865,318h8.152C92.093,321.753,91,326,91,330.5V407h-5
	c-4.142,0-7.5,3.357-7.5,7.5v30c0,4.143,3.358,7.5,7.5,7.5h15v15H22.5C10.093,467,0,477.094,0,489.5S10.093,512,22.5,512h467
	c12.406,0,22.5-10.094,22.5-22.5S501.906,467,489.5,467z M396,467h-25v-15h25V467z M420.052,284h6.083
	c5.164,0,9.365,4.201,9.365,9.365v0.27c0,5.164-4.201,9.365-9.365,9.365h-29.193C399.067,292.185,408.622,284,420.052,284z
	 M184.5,86.74C184.5,47.183,216.575,15,256,15s71.5,32.183,71.5,71.74c0,56.963-56.584,103.402-71.5,114.648
	C241.083,190.143,184.5,143.704,184.5,86.74z M140.5,201.32c0-4.036,3.284-7.32,7.32-7.32h76.501
	c6.427,6.17,12.352,11.225,17.046,15H140.5V201.32z M270.633,209c4.694-3.775,10.619-8.83,17.046-15h76.501
	c4.036,0,7.32,3.284,7.32,7.32V209H270.633z M363.5,356.659c6.893,0,12.5,5.607,12.5,12.5s-5.607,12.5-12.5,12.5
	s-12.5-5.607-12.5-12.5S356.607,356.659,363.5,356.659z M339.642,355.51c-2.312,4.025-3.642,8.684-3.642,13.649
	c0,15.163,12.337,27.5,27.5,27.5s27.5-12.337,27.5-27.5c0-14.321-11.006-26.114-25.002-27.381
	c6.106-6.438,10.352-14.65,11.873-23.778H389h4.5c6.893,0,12.5,5.607,12.5,12.5V407h-75.5v-51h2.5
	C335.256,356,337.473,355.829,339.642,355.51z M315.5,356v51h-119v-51H315.5z M161,369.159c0,6.893-5.607,12.5-12.5,12.5
	s-12.5-5.607-12.5-12.5s5.607-12.5,12.5-12.5S161,362.267,161,369.159z M76.5,293.635v-0.27c0-5.164,4.201-9.365,9.365-9.365h6.083
	c11.43,0,20.983,8.185,23.11,19H85.865C80.701,303,76.5,298.799,76.5,293.635z M106,330.5c0-6.893,5.607-12.5,12.5-12.5h15.629l0,0
	c1.521,9.127,5.767,17.339,11.873,23.778C132.005,343.045,121,354.838,121,369.159c0,15.163,12.336,27.5,27.5,27.5
	s27.5-12.337,27.5-27.5c0-4.965-1.33-9.624-3.642-13.649c2.169,0.319,4.385,0.49,6.642,0.49h2.5v51H106V330.5z M93.5,422L93.5,422
	h325l0,0l0,0l0,0v15l0,0l0,0H192c-4.142,0-7.5,3.357-7.5,7.5s3.358,7.5,7.5,7.5h164v15H156v-15h3.938c4.142,0,7.5-3.357,7.5-7.5
	s-3.358-7.5-7.5-7.5l0,0H93.5l0,0V422z M116,452h25v15h-25V452z M489.5,497h-467c-4.136,0-7.5-3.364-7.5-7.5s3.364-7.5,7.5-7.5l0,0
	h467l0,0l0,0l0,0c4.136,0,7.5,3.364,7.5,7.5S493.636,497,489.5,497z"/>
<path d="M212,404c4.142,0,7.5-3.357,7.5-7.5v-30c0-4.143-3.358-7.5-7.5-7.5s-7.5,3.357-7.5,7.5v30
	C204.5,400.643,207.858,404,212,404z"/>
<path d="M234,404c4.142,0,7.5-3.357,7.5-7.5v-30c0-4.143-3.358-7.5-7.5-7.5s-7.5,3.357-7.5,7.5v30
	C226.5,400.643,229.858,404,234,404z"/>
<path d="M256,404c4.143,0,7.5-3.357,7.5-7.5v-30c0-4.143-3.357-7.5-7.5-7.5c-4.142,0-7.5,3.357-7.5,7.5v30
	C248.5,400.643,251.858,404,256,404z"/>
<path d="M278,404c4.143,0,7.5-3.357,7.5-7.5v-30c0-4.143-3.357-7.5-7.5-7.5s-7.5,3.357-7.5,7.5v30
	C270.5,400.643,273.857,404,278,404z"/>
<path d="M300,404c4.143,0,7.5-3.357,7.5-7.5v-30c0-4.143-3.357-7.5-7.5-7.5s-7.5,3.357-7.5,7.5v30
	C292.5,400.643,295.857,404,300,404z"/>
<path d="M312.39,86.39C312.39,55.296,287.094,30,256,30c-31.093,0-56.389,25.296-56.389,56.39c0,31.093,25.296,56.389,56.389,56.389
	C287.094,142.778,312.39,117.482,312.39,86.39z M214.611,86.39C214.611,63.567,233.178,45,256,45s41.39,18.567,41.39,41.39
	s-18.567,41.389-41.39,41.389S214.611,109.212,214.611,86.39z"/>
<path d="M284.235,106.502c2.868,0,5.606-1.655,6.853-4.444c1.688-3.781-0.009-8.217-3.791-9.906L263.5,81.525V57
	c0-4.143-3.357-7.5-7.5-7.5c-4.142,0-7.5,3.357-7.5,7.5v29.39c0,2.959,1.74,5.642,4.442,6.849l28.24,12.61
	C282.175,106.292,283.213,106.502,284.235,106.502z"/>
<g>
</g>
<g>
</g>
<g>
</g>
<g>
</g>
<g>
</g>
<g>
</g>
<g>
</g>
<g>
</g>
<g>
</g>
<g>
</g>
<g>
</g>
<g>
</g>
<g>
</g>
<g>
</g>
<g>
</g>
</svg>
