<?xml version="1.0" encoding="iso-8859-1"?>
<!-- Generator: Adobe Illustrator 19.0.0, SVG Export Plug-In . SVG Version: 6.00 Build 0)  -->
<svg version="1.1" id="Capa_1" xmlns="http://www.w3.org/2000/svg" xmlns:xlink="http://www.w3.org/1999/xlink" x="0px" y="0px"
	 viewBox="0 0 512 512" style="enable-background:new 0 0 512 512;" xml:space="preserve">
<path style="fill:#373C41;" d="M163.571,476.436c-6.623,0-11.992-5.369-11.992-11.992v-97.009c0-18.338,14.866-33.203,33.204-33.203
	s33.204,14.865,33.204,33.203v97.009c0,6.623-5.369,11.992-11.992,11.992H163.571z"/>
<path style="fill:#272A2E;" d="M392.771,476.436c-6.623,0-11.992-5.369-11.992-11.992v-99.656c0-16.875,14.866-30.554,33.203-30.554
	c18.338,0,33.204,13.68,33.204,30.554v99.656c0,6.623-5.369,11.992-11.992,11.992H392.771z"/>
<g>
	<rect x="163.682" y="425.754" style="fill:#50555A;" width="13.447" height="50.683"/>
	<rect x="192.443" y="425.754" style="fill:#50555A;" width="13.447" height="50.683"/>
	<rect x="392.878" y="425.754" style="fill:#50555A;" width="13.447" height="50.683"/>
	<rect x="421.639" y="425.754" style="fill:#50555A;" width="13.447" height="50.683"/>
</g>
<path style="fill:#D72846;" d="M161.128,302.005c-2.807,0-5.608-1.108-7.693-3.305l-29.575-31.184
	c-4.028-4.247-3.85-10.955,0.396-14.983c4.248-4.028,10.956-3.851,14.984,0.396l29.575,31.184c4.028,4.247,3.85,10.955-0.396,14.983
	C166.37,301.04,163.747,302.005,161.128,302.005z"/>
<path style="fill:#F75C66;" d="M101.53,273.827h29.745c8.319,0,15.063-6.744,15.063-15.063v-11.462
	c0-8.319-6.744-15.063-15.063-15.063H101.53c-8.319,0-15.063,6.744-15.063,15.063v11.462
	C86.467,267.082,93.211,273.827,101.53,273.827z"/>
<path style="fill:#D72846;" d="M437.338,302.005c-2.618,0-5.242-0.964-7.292-2.908c-4.247-4.028-4.425-10.736-0.397-14.983
	l29.575-31.184c4.028-4.247,10.736-4.425,14.983-0.396c4.247,4.028,4.425,10.736,0.397,14.983L445.03,298.7
	C442.947,300.897,440.146,302.005,437.338,302.005z"/>
<path style="fill:#E64B55;" d="M496.936,273.827h-29.745c-8.319,0-15.063-6.744-15.063-15.063v-11.462
	c0-8.319,6.744-15.063,15.063-15.063h29.745c8.319,0,15.063,6.744,15.063,15.063v11.462
	C512,267.082,505.256,273.827,496.936,273.827z"/>
<polygon style="fill:#A0EBFF;" points="435.49,285.666 163.361,285.666 183.902,164.629 414.949,164.629 "/>
<path style="fill:#373C41;" d="M317.603,208.093h-36.739c-2.712,0-4.911-2.198-4.911-4.911v-9.57c0-2.712,2.198-4.911,4.911-4.911
	h36.739c2.712,0,4.911,2.198,4.911,4.911v9.57C322.514,205.894,320.314,208.093,317.603,208.093z"/>
<path style="fill:#D72846;" d="M451.896,295.474c0.746,4.001-0.327,8.128-2.928,11.259c-2.6,3.131-6.46,4.942-10.53,4.942H160.327
	c-4.07,0-7.929-1.811-10.53-4.942c-2.601-3.131-3.674-7.256-2.928-11.259l24.698-132.399c1.208-6.48,6.865-11.18,13.458-11.18
	h228.716c6.593,0,12.25,4.699,13.458,11.18L451.896,295.474z M176.808,284.295h245.15l-19.59-105.019H196.397L176.808,284.295z"/>
<path style="fill:#696E73;" d="M356.669,231.047c-23.742,0-43.057,19.315-43.057,43.057c0,23.742,19.315,43.057,43.057,43.057
	c23.742,0,43.057-19.315,43.057-43.057C399.727,250.362,380.412,231.047,356.669,231.047z M356.669,303.467
	c-16.191,0-29.363-13.172-29.363-29.363c0-9.735,4.768-18.365,12.089-23.702c4.313-3.144,10.427-0.083,10.427,5.309
	c-0.301,5.234,0.9,8.562-1.766,12.337c-1.209,1.712-1.92,3.8-1.92,6.055c0,3.201,1.433,6.063,3.686,7.996v7.148h13.695V282.1
	c2.253-1.932,3.687-4.795,3.687-7.996c0-2.255-0.712-4.343-1.92-6.056c-2.665-3.774-1.463-7.1-1.766-12.337
	c0-5.364,6.107-8.458,10.426-5.308c7.322,5.336,12.09,13.965,12.09,23.702C386.033,290.296,372.861,303.467,356.669,303.467z"/>
<path style="fill:#373C41;" d="M356.669,317.161c-23.742,0-43.057-19.315-43.057-43.057s19.315-43.057,43.057-43.057
	c23.742,0,43.057,19.315,43.057,43.057C399.726,297.846,380.412,317.161,356.669,317.161z M356.669,244.74
	c-16.191,0-29.363,13.172-29.363,29.364c0,16.192,13.172,29.363,29.363,29.363c16.192,0,29.364-13.172,29.364-29.363
	C386.033,257.913,372.861,244.74,356.669,244.74z"/>
<g style="opacity:0.22;">
	<path d="M217.987,447.362v-79.925c0-18.338-14.866-33.203-33.204-33.203s-33.204,14.866-33.204,33.203v67.601L217.987,447.362z"/>
	<path d="M447.185,447.362v-79.925c0-18.338-14.866-33.203-33.204-33.203c-18.338,0-33.203,14.866-33.203,33.203v67.601
		L447.185,447.362z"/>
</g>
<path style="fill:#E64B55;" d="M475.901,399.139c0,14.701-11.918,26.618-26.618,26.618h-299.8
	c-14.701,0-26.618-11.918-26.618-26.618V343.8c0-39.281,31.843-71.124,71.124-71.124h210.79c39.281,0,71.124,31.843,71.124,71.124
	v55.339H475.901z"/>
<path style="fill:#50555A;" d="M124.293,407.527c3.51,10.581,13.43,18.229,25.191,18.229h299.8c11.761,0,21.681-7.649,25.191-18.229
	H124.293z"/>
<g>
	<path style="fill:#D72846;" d="M351.89,407.527H247.893c-5.7,0-10.321-4.621-10.321-10.321v-52.104
		c0-5.7,4.621-10.321,10.321-10.321H351.89c5.7,0,10.321,4.621,10.321,10.321v52.104
		C362.212,402.906,357.591,407.527,351.89,407.527z"/>
	<ellipse style="fill:#D72846;" cx="183.899" cy="357.602" rx="29.132" ry="29.142"/>
	<ellipse style="fill:#D72846;" cx="414.86" cy="357.602" rx="29.132" ry="29.142"/>
</g>
<g>
	<ellipse style="fill:#FAC855;" cx="183.899" cy="350.752" rx="29.132" ry="29.142"/>
	<ellipse style="fill:#FAC855;" cx="414.86" cy="350.752" rx="29.132" ry="29.142"/>
</g>
<path style="fill:#B9B9BE;" d="M328.681,412.356h-57.579c-3.331,0-6.032-2.701-6.032-6.032V391.15c0-3.331,2.701-6.032,6.032-6.032
	h57.579c3.331,0,6.032,2.701,6.032,6.032v15.174C334.713,409.655,332.012,412.356,328.681,412.356z"/>
<path style="fill:#D2D2D7;" d="M328.681,385.119h-57.579c-3.331,0-6.032,2.7-6.032,6.031v6.847c0-3.331,2.701-6.031,6.032-6.031
	h57.579c3.331,0,6.032,2.7,6.032,6.031v-6.847C334.713,387.819,332.012,385.119,328.681,385.119z"/>
<g>
	<ellipse style="fill:#FAF58C;" cx="414.86" cy="350.752" rx="16.515" ry="16.525"/>
	<ellipse style="fill:#FAF58C;" cx="183.899" cy="350.752" rx="16.515" ry="16.525"/>
</g>
<path style="fill:#E64B55;" d="M340.255,347.206h-80.726c-4.701,0-8.513,3.811-8.513,8.513s3.812,8.513,8.513,8.513h80.726
	c4.701,0,8.513-3.812,8.513-8.513S344.956,347.206,340.255,347.206z"/>
<path style="fill:#F75C66;" d="M388.436,301.652c-6.673,9.265-17.394,14.756-28.812,14.756H233.307
	c-7.754,0-15.035-3.729-19.567-10.021l-24.279-33.71h219.845L388.436,301.652z"/>
<g>
	<path style="fill:#FA870A;" d="M151.58,384.976c0-3.709-3.007-6.717-6.717-6.717h-21.751v24.467h21.751
		c3.709,0,6.717-3.007,6.717-6.717V384.976z"/>
	<path style="fill:#FA870A;" d="M454.381,378.26c-3.709,0-6.717,3.007-6.717,6.717v11.033c0,3.709,3.007,6.717,6.717,6.717h21.272
		c0.158-1.174,0.248-2.371,0.248-3.588V378.26H454.381z"/>
</g>
<rect x="291.502" y="179.279" style="fill:#696E73;" width="16.775" height="9.425"/>
<g style="opacity:0.38;">
	<polygon style="fill:#FFFFFF;" points="281.431,179.276 255.411,179.276 204.742,272.676 230.762,272.676 	"/>
</g>
<g style="opacity:0.36;">
	<polygon style="fill:#FFFFFF;" points="310.189,179.276 295.124,179.276 244.456,272.676 259.52,272.676 	"/>
</g>
<path style="fill:#414B82;" d="M72.704,500.625c-12.877,0-23.317-10.439-23.317-23.317V290.932
	c0-12.877,10.439-23.317,23.317-23.317s23.317,10.439,23.317,23.317v186.377C96.021,490.185,85.581,500.625,72.704,500.625z"/>
<path style="fill:#919196;" d="M227.007,194.002l-28.529-60.349c-8.447-17.869-26.677-29.415-46.441-29.415h-50.604
	c-0.557,0-1.104,0.037-1.649,0.083H49.386v0.159h-1.12c-26.367,0-48.132,20.831-48.266,46.434V290.5
	c0,11.07,8.974,20.045,20.045,20.045l0,0c11.07,0,20.045-8.974,20.045-20.045V151.089c0.041-3.587,3.853-6.726,8.178-6.726h1.12
	v146.568H152.31v-56.6l60.881-13.118c4.309-0.929,8.295-3.136,11.126-6.514C229.272,208.784,230.179,200.712,227.007,194.002z
	 M152.309,194.842v-51.66h0.227v-0.323c4.717,0.188,9.014,3.002,11.042,7.292l18.132,38.356L152.309,194.842z"/>
<path style="fill:#BA6746;" d="M0,280.727v9.772c0,11.07,8.974,20.045,20.045,20.045s20.045-8.974,20.045-20.045v-9.772H0z"/>
<rect y="280.725" style="fill:#FFFFFF;" width="40.088" height="9.772"/>
<path style="fill:#1E2D64;" d="M128.992,500.625c-12.877,0-23.317-10.439-23.317-23.317V290.932
	c0-12.877,10.439-23.317,23.317-23.317c12.877,0,23.317,10.439,23.317,23.317v186.377
	C152.309,490.185,141.869,500.625,128.992,500.625z"/>
<circle style="fill:#BA6746;" cx="100.844" cy="51.649" r="40.274"/>
<path style="fill:#838387;" d="M227.007,194.002l-28.529-60.349c-8.447-17.869-26.676-29.415-46.442-29.415h-14.294v0.083h-36.894
	v186.61h51.461v-56.6l61.314-13.211c5.758-1.24,10.635-5.043,13.242-10.326C229.473,205.512,229.525,199.328,227.007,194.002z
	 M152.309,194.842v-51.66h0.227v-0.323c4.717,0.188,9.014,3.002,11.042,7.292l18.132,38.356L152.309,194.842z"/>
<polygon style="fill:#FFFFFF;" points="100.857,104.321 71.19,104.321 100.857,182.17 130.526,104.321 "/>
<path style="fill:#414B82;" d="M113.732,130.94l-6.604-12.011l5.731-10.423c1.033-1.879-0.328-4.185-2.475-4.185H91.332
	c-2.144,0-3.509,2.303-2.475,4.185l5.731,10.423l-6.604,12.011c-0.91,1.656-1.206,3.578-0.836,5.43l3.47,18.929l10.24,26.869
	l10.24-26.869l3.47-18.929C114.938,134.518,114.642,132.595,113.732,130.94z"/>
<path style="fill:#1E2D64;" d="M110.384,104.321c2.144,0,3.509,2.303,2.475,4.185l-5.731,10.423l6.604,12.011
	c0.91,1.656,1.206,3.578,0.836,5.43l-3.47,18.929l-10.24,26.87v-77.849L110.384,104.321L110.384,104.321z"/>
<rect x="116.9" y="167.907" style="fill:#373C41;" width="23.03" height="6.717"/>
<path style="fill:#C8D2DC;" d="M149.437,212.044l-38.119,22.303c-2.948,1.725-6.737,0.733-8.462-2.215l-35.11-60.01
	c-1.725-2.948-0.733-6.737,2.215-8.462l38.12-22.303c2.948-1.725,6.737-0.733,8.462,2.215l35.11,60.01
	C153.378,206.53,152.386,210.319,149.437,212.044z"/>
<path style="fill:#E6EBF0;" d="M182.809,222.645l-38.119,22.303c-2.948,1.725-6.737,0.733-8.462-2.215l-35.11-60.01
	c-1.725-2.948-0.733-6.737,2.215-8.462l38.12-22.303c2.948-1.725,6.737-0.733,8.462,2.215l35.11,60.01
	C186.749,217.131,185.757,220.92,182.809,222.645z"/>
<path style="fill:#838387;" d="M116.449,222.431c-2.245-10.42,4.382-20.688,14.803-22.934l74.239-15.996
	c10.424-2.248,20.689,4.382,22.935,14.803s-4.382,20.688-14.803,22.934l-74.239,15.996
	C128.919,239.488,118.685,232.808,116.449,222.431z"/>
<path style="fill:#BA6746;" d="M131.252,199.497c-10.42,2.245-17.048,12.513-14.803,22.934
	c2.235,10.376,12.469,17.058,22.935,14.803L131.252,199.497z"/>
<rect x="135.208" y="198.056" transform="matrix(-0.9776 0.2106 -0.2106 -0.9776 322.7215 400.348)" style="fill:#FFFFFF;" width="9.673" height="38.604"/>
<g>
</g>
<g>
</g>
<g>
</g>
<g>
</g>
<g>
</g>
<g>
</g>
<g>
</g>
<g>
</g>
<g>
</g>
<g>
</g>
<g>
</g>
<g>
</g>
<g>
</g>
<g>
</g>
<g>
</g>
</svg>
