<svg height="512pt" viewBox="0 0 512 512" width="512pt" xmlns="http://www.w3.org/2000/svg" xmlns:xlink="http://www.w3.org/1999/xlink"><linearGradient id="a" gradientUnits="userSpaceOnUse" x1="74.9807" x2="437.0193" y1="74.9807" y2="437.0193"><stop offset="0" stop-color="#ff7a78"/><stop offset="1" stop-color="#ff5552"/></linearGradient><linearGradient id="b"><stop offset="0" stop-color="#bef0fd"/><stop offset="1" stop-color="#7de1fa"/></linearGradient><linearGradient id="c" gradientUnits="userSpaceOnUse" x1="228.34" x2="283.66" xlink:href="#b" y1="59.2055" y2="114.5255"/><linearGradient id="d" gradientUnits="userSpaceOnUse" x1="179.4741" x2="332.5259" y1="226.7021" y2="379.754"><stop offset="0" stop-color="#54a0c8"/><stop offset="1" stop-color="#275d86"/></linearGradient><linearGradient id="e" gradientUnits="userSpaceOnUse" x1="177.9373" x2="334.0627" y1="185.2119" y2="341.3374"><stop offset="0" stop-color="#7de1fa"/><stop offset="1" stop-color="#54a0c8"/></linearGradient><linearGradient id="f" gradientUnits="userSpaceOnUse" x1="149.7011" x2="251.6973" xlink:href="#b" y1="147.1411" y2="249.1373"/><linearGradient id="g" gradientUnits="userSpaceOnUse" x1="168.1028" x2="343.8972" y1="286.0173" y2="461.8118"><stop offset="0" stop-color="#a0836b"/><stop offset="1" stop-color="#80542f"/></linearGradient><linearGradient id="h" gradientUnits="userSpaceOnUse" x1="246.7608" x2="375.8407" xlink:href="#b" y1="133.5993" y2="262.6792"/><linearGradient id="i" gradientUnits="userSpaceOnUse" x1="172.7128" x2="339.2873" y1="262.9674" y2="429.5419"><stop offset="0" stop-color="#d0afa2"/><stop offset="1" stop-color="#a0836b"/></linearGradient><path d="m512 256c0 141.386719-114.613281 256-256 256s-256-114.613281-256-256 114.613281-256 256-256 256 114.613281 256 256zm0 0" fill="url(#a)"/><path d="m256 87.480469h-27.660156v55.320312h55.320312v-55.320312zm0 0" fill="#275d86"/><path d="m256 77.644531h-46.101562v18.441407h92.203124v-18.441407zm0 0" fill="url(#c)"/><path d="m256 269.421875h-119.246094v67.613281h238.492188v-67.613281zm0 0" fill="url(#d)"/><path d="m256 228.574219v-2.179688l-8.640625 1.15625-9.800781-1.15625.789062 2.363281-120.03125 16.078126v36.878906h275.367188v-36.878906zm0 0" fill="url(#e)"/><path d="m256 124.359375 36.878906 60.238281-36.878906 60.238282h-137.683594v-28.277344c0-50.707032 41.488282-92.199219 92.199219-92.199219zm0 0" fill="url(#f)"/><path d="m136.753906 226.394531v-9.835937c0-19.597656 7.699219-38.09375 21.683594-52.074219 13.984375-13.984375 32.476562-21.683594 52.078125-21.683594h57.777344v83.59375zm0 0" fill="#fff"/><path d="m256 338.96875v-1.933594l-8.710938 1.019532-9.730468-1.019532.695312 2.078125-139.609375 16.363281v36.878907h314.710938v-36.878907zm0 0" fill="url(#g)"/><path d="m393.683594 216.558594v28.277344h-137.683594v-120.476563h45.484375c50.710937 0 92.199219 41.492187 92.199219 92.199219zm0 0" fill="url(#h)"/><path d="m394.914062 318.59375h-277.828124l-18.441407 36.882812h314.710938zm0 0" fill="url(#i)"/></svg>